<svg id="Layer_1" data-name="Layer 1" xmlns="http://www.w3.org/2000/svg" viewBox="0 0 103.34 89.79"><defs><style>.cls-1{fill:#e95537;}.cls-2{fill:#f6bc52;}.cls-3{fill:#fbfbfb;}</style></defs><path class="cls-1" d="M18.73,52.28c3-9.52,6.21-22.32,11.11-34.45A13.12,13.12,0,0,1,47,10.17c7.58,2.71,5.69,9.62,4.29,15.16-2.76,10.87-5.59,21.82-9.64,32.24-2.78,7.14-9.58,9.4-17.19,8.18C18.31,64.75,18.8,60,18.73,52.28Z"/><path class="cls-2" d="M57.72,35.41C59.58,24.93,64.21,16.26,76,15.75c6.09-.26,9.1,4.62,8.55,11.24C83.61,38.3,74,49,65.32,47.44,58.64,46.26,56.67,41.7,57.72,35.41Z"/><path class="cls-3" d="M74.06,61.88C72.85,72,68.28,79,58.14,80.38c-6.25.86-10.71-2.57-10.33-9.15.54-9.54,4.34-16.88,15.49-17.61C69.77,53.19,73.45,55.77,74.06,61.88Z"/></svg>